<svg width="128" height="128" xmlns="http://www.w3.org/2000/svg" class="icon">
 <defs>
  <style type="text/css"/>
 </defs>
 <g>
  <title>background</title>
  <rect fill="none" id="canvas_background" height="130" width="130" y="-1" x="-1"/>
 </g>
 <g>
  <title>Layer 1</title>
  <defs>
   <style type="text/css"/>
  </defs>
  <g stroke="null" id="svg_11">
   <path stroke="null" id="svg_10" d="m64.000473,1.092711c-35.245986,0 -63.820834,28.194288 -63.820834,62.972254c0,34.778686 28.574848,62.97283 63.820834,62.97283c35.246132,0 63.819813,-28.194144 63.819813,-62.97283c0,-34.777966 -28.573681,-62.972254 -63.819813,-62.972254zm-34.954261,64.410206l0,-31.616516c0,-2.384731 1.951738,-4.310545 4.368425,-4.310545l32.04227,0c2.416833,0 4.368571,1.925813 4.368571,4.310545l0,31.616516c0,2.384587 -1.951738,4.310256 -4.368571,4.310256l-32.042124,0c-2.416833,0 -4.368571,-1.925669 -4.368571,-4.310257zm69.907501,28.740612c0,2.386459 -1.950716,4.310977 -4.369301,4.310977l-32.040372,0c-2.417563,0 -4.369301,-1.924517 -4.369301,-4.310977l0,-21.556035l10.194306,0c2.417563,0 4.369301,-1.925669 4.369301,-4.310401l0,-10.060625l21.845921,0c2.418585,0 4.369301,1.926533 4.369301,4.312128l0,31.614932l0.000146,0zm-36.590341,-34.094845c-0.247944,-0.230539 -0.77156,-0.518388 -1.543995,-0.905452c-0.77156,-0.359992 -1.500214,-0.762175 -2.140432,-1.164502c1.820396,-2.112865 2.751609,-5.001441 2.751609,-8.651472c0,-2.399995 -0.450648,-4.484205 -1.367997,-6.251478c-0.902901,-1.780953 -2.243608,-3.146906 -4.020078,-4.109957c-1.776616,-0.977306 -3.903476,-1.465888 -6.350226,-1.465888c-1.820396,0 -3.437358,0.27345 -4.879199,0.805374c-1.427247,0.54546 -2.635736,1.307491 -3.640646,2.299197c-0.990462,1.006106 -1.747428,2.212943 -2.271774,3.635775c-0.524345,1.437088 -0.772435,2.988366 -0.772435,4.684648c0,1.681019 0.24809,3.233448 0.772435,4.670537c0.509898,1.437088 1.281311,2.659045 2.300961,3.693086c1.018628,1.020505 2.300961,1.840135 3.801175,2.371052c1.500214,0.560724 3.189269,0.83331 5.097226,0.83331c2.315554,0 4.296479,-0.286986 5.913442,-0.890044c0.77156,0.53106 1.500214,1.005242 2.184213,1.436368c0.655833,0.374392 1.223959,0.690033 1.733711,0.920716c0.495304,0.200732 0.903047,0.301385 1.266864,0.301385c0.408473,0 0.787029,-0.158397 1.092617,-0.416583c0.305442,-0.316793 0.465096,-0.603779 0.465096,-0.876509c-0.000292,-0.403047 -0.145351,-0.704577 -0.392566,-0.919564zm-5.825734,-7.343981c-0.334629,1.07796 -0.859121,1.996804 -1.587775,2.758979c-2.50527,-1.709818 -4.281886,-2.557527 -5.330576,-2.557527c-0.363963,0 -0.683998,0.128589 -0.9604,0.373528c-0.29187,0.27345 -0.423212,0.574115 -0.423212,0.876509c0,0.416727 0.131342,0.704432 0.451378,0.905164c0.29187,0.230395 0.860142,0.517524 1.690076,0.890908c0.815194,0.388935 1.499339,0.776575 2.038277,1.150103c-0.902901,0.359128 -1.791209,0.517524 -2.664923,0.517524c-2.08308,0 -3.844956,-0.747775 -5.199235,-2.241598c-1.368872,-1.508943 -2.052871,-3.665295 -2.052871,-6.453217c0,-1.33629 0.174101,-2.571783 0.552803,-3.678543c0.349223,-1.107047 0.859121,-1.997812 1.500214,-2.716932c0.6265,-0.689313 1.383466,-1.234629 2.271774,-1.594477c0.859121,-0.359128 1.820396,-0.560724 2.869087,-0.560724c1.456434,0 2.723297,0.330329 3.859549,1.006106c1.121804,0.675777 1.980779,1.638684 2.607425,2.946175c0.581844,1.307635 0.902901,2.845521 0.902901,4.627338c-0.000146,1.437088 -0.175269,2.672437 -0.524491,3.750685zm27.147456,20.277055c-0.290995,-0.717968 -0.538939,-1.278836 -0.728655,-1.709818c-0.174101,-0.416727 -0.407597,-0.81891 -0.684144,-1.207701c-0.276255,-0.358984 -0.6265,-0.674913 -1.063284,-0.919852c-0.451524,-0.229531 -1.00418,-0.35884 -1.659867,-0.35884c-0.67028,0 -1.209365,0.129309 -1.660743,0.35884c-0.465971,0.244939 -0.800747,0.560868 -1.077002,0.949515c-0.262683,0.373528 -0.540106,0.846845 -0.772581,1.437088c-0.24809,0.574115 -0.451524,1.077096 -0.611906,1.479279l-6.029314,14.429056c-0.247068,0.588659 -0.436784,1.06284 -0.524491,1.379633c-0.116748,0.315641 -0.160529,0.631714 -0.160529,0.919564c0,0.530916 0.233496,1.034905 0.684874,1.437088s1.005056,0.603059 1.587921,0.603059c0.71304,0 1.208344,-0.171932 1.529255,-0.588659c0.320036,-0.403047 0.684144,-1.164502 1.135376,-2.285661l1.121804,-2.873312l9.568681,0l1.120929,2.830977c0.131196,0.359128 0.320036,0.761311 0.553532,1.206837c0.204309,0.445526 0.408619,0.789967 0.582865,1.020505c0.189716,0.214987 0.392858,0.373384 0.655541,0.517381c0.276401,0.129597 0.596583,0.171932 0.990462,0.171932c0.625624,0 1.179157,-0.200732 1.63068,-0.631858c0.451524,-0.417303 0.684874,-0.890908 0.684874,-1.436944c0,-0.488725 -0.247944,-1.2797 -0.728655,-2.371195l-6.145624,-14.356914zm-7.660724,10.174095l3.481139,-10.058753l3.538492,10.058753l-7.019631,0z"/>
  </g>
 </g>
</svg>