<svg width="128" height="128" xmlns="http://www.w3.org/2000/svg" class="icon">
 <defs>
  <style type="text/css"/>
 </defs>
 <g>
  <title>background</title>
  <rect fill="none" id="canvas_background" height="130" width="130" y="-1" x="-1"/>
 </g>
 <g>
  <title>Layer 1</title>
  <defs>
   <style type="text/css"/>
  </defs>
  <defs>
   <style type="text/css"/>
  </defs>
  <g stroke="null" id="svg_17">
   <path stroke="null" id="svg_15" d="m109.021756,106.085036c11.525711,-8.464422 18.915017,-21.433639 18.915017,-36.110086c0,-15.035109 -7.817672,-28.362988 -19.83868,-36.741331c1.070914,4.418715 1.633144,9.009588 1.633144,13.68654c0,16.125442 -6.545961,30.974047 -18.419719,41.963449c-11.017027,10.085574 -25.460978,15.666354 -40.748275,15.666354c-2.061509,0 -4.189951,-0.186504 -6.25146,-0.358662c8.888586,7.388436 20.695411,11.89323 33.559765,11.89323c4.337201,0 8.527152,-0.545166 12.516306,-1.434648c5.903413,5.308197 12.583239,9.181746 19.771748,11.520222c1.914259,0.631245 3.975768,1.075986 6.117596,1.434648c1.137846,0.186504 2.20876,-0.989907 2.489875,-2.611059c0.281115,-1.707231 -0.642548,-2.797563 -1.418961,-3.959628c-2.784376,-3.959628 -5.916799,-7.474515 -8.326356,-14.94903z"/>
   <path stroke="null" id="svg_16" d="m100.628468,46.920159c0,-25.479345 -22.408874,-46.109581 -50.065226,-46.109581s-50.065226,20.630236 -50.065226,46.109581c0,14.590368 7.389306,27.645664 18.915017,36.110086c-2.422943,7.474515 -5.54198,10.989402 -8.326356,14.94903c-0.776413,1.176411 -1.700076,2.252397 -1.418961,3.959628c0.214183,1.535073 1.204778,2.611059 2.275692,2.611059c0.066932,0 0.147251,0 0.214183,0c2.128441,-0.358662 4.189951,-0.803403 6.117596,-1.434648c7.175123,-2.338476 13.868335,-6.212025 19.771748,-11.520222c3.975768,0.903828 8.179105,1.434648 12.516306,1.434648c27.669738,0 50.065226,-20.615889 50.065226,-46.109581z"/>
  </g>
 </g>
</svg>