<svg width="128" height="128" xmlns="http://www.w3.org/2000/svg" class="icon">
 <defs>
  <style type="text/css"/>
 </defs>
 <g>
  <title>background</title>
  <rect fill="none" id="canvas_background" height="130" width="130" y="-1" x="-1"/>
 </g>
 <g>
  <title>Layer 1</title>
  <path stroke="null" id="svg_1" d="m122.827312,35.968377c-3.22698,-7.02272 -7.843682,-13.327156 -13.722061,-18.737919c-5.870865,-5.403865 -12.706771,-9.646351 -20.317685,-12.609458c-7.875928,-3.066285 -16.237587,-4.621002 -24.852989,-4.621002s-16.97706,1.554717 -24.852989,4.620856c-7.610914,2.963107 -14.44682,7.205593 -20.317685,12.609458c-5.878379,5.410763 -10.495081,11.715199 -13.722061,18.737919c-3.345477,7.280592 -5.041853,15.01235 -5.041853,22.980405c0,10.390467 2.973862,20.607748 8.600062,29.547409c5.44728,8.655225 13.251358,15.944916 22.568979,21.081076c2.482967,1.368909 5.382474,3.741566 8.451979,6.253654c6.99526,5.724554 14.923627,12.213037 24.313411,12.213037c9.900715,0 18.272235,-6.855111 25.658364,-12.903289c3.052286,-2.499612 5.935514,-4.860528 8.435543,-6.31603c8.952423,-5.212185 16.431847,-12.45814 21.62914,-20.954415c5.371986,-8.782033 8.211541,-18.782976 8.211541,-28.921589c0.000157,-7.967908 -1.696219,-15.699666 -5.041696,-22.980112zm-53.10092,54.746806c0,2.999212 -2.593011,5.43043 -5.791814,5.43043s-5.791814,-2.431218 -5.791814,-5.43043l0,-1.692533c0,-2.999212 2.593011,-5.43043 5.791814,-5.43043s5.791814,2.431218 5.791814,5.43043l0,1.692533zm2.00162,-22.466129l-0.303366,0.096427l-0.126324,0.025978c-0.152153,0.05724 -0.615811,0.261101 -0.997757,0.736043c-0.750901,0.93374 -0.976625,2.647995 -0.635691,4.826772c0.464441,2.967363 -1.724865,5.725875 -4.889544,6.16119c-0.284895,0.039187 -0.568537,0.058267 -0.848109,0.058267c-2.826875,0.000147 -5.300606,-1.942479 -5.723408,-4.642724c-1.153667,-7.371882 1.496636,-11.751891 3.923093,-14.127924c2.323457,-2.275203 4.914589,-3.169757 6.034288,-3.469604c5.526643,-1.84297 6.127427,-6.821647 6.127427,-8.890788c0,-5.353083 -4.644879,-9.708141 -10.354199,-9.708141s-10.354199,4.355058 -10.354199,9.708141c0,2.999212 -2.593011,5.43043 -5.791814,5.43043s-5.791814,-2.431218 -5.791814,-5.43043c0,-11.34182 9.841232,-20.569001 21.937828,-20.569001s21.937828,9.227181 21.937828,20.569001c0.000157,9.08599 -5.419729,16.453175 -14.144237,19.226364z"/>
 </g>
</svg>