<svg width="128" height="128" xmlns="http://www.w3.org/2000/svg" class="icon">
 <defs>
  <style type="text/css"/>
 </defs>
 <g>
  <title>background</title>
  <rect fill="none" id="canvas_background" height="130" width="130" y="-1" x="-1"/>
 </g>
 <g>
  <title>Layer 1</title>
  <defs>
   <style type="text/css"/>
  </defs>
  <defs>
   <style type="text/css"/>
  </defs>
  <defs>
   <style type="text/css"/>
  </defs>
  <g stroke="null" id="svg_28">
   <path stroke="null" id="svg_26" d="m78.369809,114.482438c0,-13.46133 13.789371,-24.344959 30.845004,-24.344959c6.259641,0 12.065599,1.503723 16.964511,4.009758l0,-0.429617c0,-7.733105 -11.521275,-17.256217 -20.684136,-18.401862l12.337841,-16.110571l-28.75819,0c5.170994,-5.871431 8.618377,-13.604536 8.618377,-22.196748l0,-2.004879c11.158554,-1.575389 18.416202,-4.081424 18.416202,-6.58746c0,-2.720907 -8.074053,-5.227069 -20.412055,-6.802331c-0.635285,-2.291163 -8.890458,-20.907897 -18.688444,-20.907897c-4.354589,0 -7.801972,1.790007 -10.070067,4.510914c0,1.360517 -1.723611,2.720907 -3.991546,2.720907c-1.995853,0 -3.719464,-1.145645 -3.991706,-2.506035c-2.086493,-2.649368 -5.806118,-4.725786 -10.070067,-4.725786c-9.525583,0 -18.416041,17.041345 -20.411894,21.337514c-10.614391,1.575389 -17.509156,3.866552 -17.509156,6.58746c0,2.720907 7.167008,5.012198 18.416362,6.58746l0,2.004879c0,8.592339 3.175141,16.325443 8.618377,22.196875l-28.75835,0l12.338002,15.8957c-9.162861,0 -21.228621,9.952856 -21.228621,18.616734l0.272242,26.0633c0,4.296169 4.263788,7.733105 9.797664,7.733105l72.939203,0c-3.175141,-3.866552 -4.989553,-8.377467 -4.989553,-13.246459zm-22.589349,6.873871l-4.626831,0l-8.618377,-50.121975l18.053319,12.459018l-4.808112,37.662957zm4.808112,-77.545665c-1.179287,7.947977 -6.350442,9.737984 -9.1627,9.737984c-6.894766,0 -8.890619,-7.231948 -9.162861,-9.737984l-2.267935,0l0,-3.150524l17.236914,0l0,1.575262l11.521275,0l0,-1.575262l17.237075,0l0,1.575262l0.544324,0l0,1.575262l-2.268095,0s-1.45153,9.737984 -9.1627,9.737984c-7.892773,0 -9.344302,-9.737984 -9.344302,-9.737984l-5.170994,0zm10.342149,77.545665l-4.898912,-37.662957l18.053319,-12.673763l-8.618377,50.33672l-4.53603,0z"/>
   <path stroke="null" id="svg_27" d="m128.084538,114.339232c0,0.214745 -0.181602,0.357951 -0.453683,0.357951l-15.694584,0l0,12.387352c0,0.214745 -0.181441,0.357951 -0.453523,0.357951l-6.985567,0c-0.272081,0 -0.453523,-0.143206 -0.453523,-0.357951l0,-12.387478l-15.694584,0c-0.272242,0 -0.453683,-0.143206 -0.453683,-0.357951l0,-5.513481c0,-0.214745 0.181441,-0.357951 0.453683,-0.357951l15.694584,0l0,-12.387225c0,-0.214872 0.181441,-0.358078 0.453523,-0.358078l6.985567,0c0.272081,0 0.453523,0.143332 0.453523,0.358078l0,12.387225l15.694584,0c0.272242,0 0.453683,0.143206 0.453683,0.357951l0,5.513481l0,0.000127z"/>
  </g>
 </g>
</svg>