<svg width="128" height="128" xmlns="http://www.w3.org/2000/svg" class="icon">
 <defs>
  <style type="text/css"/>
 </defs>
 <g>
  <title>background</title>
  <rect fill="none" id="canvas_background" height="130" width="130" y="-1" x="-1"/>
 </g>
 <g>
  <title>Layer 1</title>
  <path stroke="null" id="svg_1" d="m64.095976,126.94277c-35.072557,0 -63.507387,-28.200739 -63.507387,-62.992362c0,-34.78813 28.43483,-62.992362 63.507387,-62.992362c35.074318,0 63.507387,28.204232 63.507387,62.992362c0,34.789876 -28.433069,62.992362 -63.507387,62.992362zm23.070066,-68.290915a5.556677,5.511614 0 0 0 5.542591,-5.525585a5.556677,5.511614 0 0 0 -5.542591,-5.527331l-6.672941,0l3.301257,-7.441377a5.581326,5.536063 0 0 0 -2.822355,-7.289441a5.530266,5.485417 0 0 0 -7.312065,2.815185l-5.285532,11.915633l-9.567484,0l-5.289054,-11.915633a5.533788,5.48891 0 0 0 -7.310305,-2.815185a5.584847,5.539555 0 0 0 -2.824115,7.291188l3.304778,7.43963l-8.864976,0a5.556677,5.511614 0 0 0 -5.542591,5.527331a5.556677,5.511614 0 0 0 5.54083,5.525585l19.094472,0l0,13.059519l-19.094472,0a5.556677,5.511614 0 0 0 -5.54083,5.527331a5.556677,5.511614 0 0 0 5.54083,5.525585l19.094472,0l0,14.743042a5.556677,5.511614 0 0 0 5.542591,5.525584a5.556677,5.511614 0 0 0 5.54083,-5.525584l0,-14.743042l19.16666,0a5.556677,5.511614 0 0 0 5.54259,-5.525585a5.556677,5.511614 0 0 0 -5.54259,-5.527331l-19.16666,0l0,-13.059519l19.16666,0l-0.000001,0z"/>
 </g>
</svg>